<svg width="3817" height="117" viewBox="0 0 3817 117" fill="none" xmlns="http://www.w3.org/2000/svg">
<path d="M28.2504 109H0.950391V107.74H4.87039C12.2904 107.74 13.2704 107.04 13.2704 100.32L13.2704 17.02C13.2704 10.3 12.2904 9.59999 4.87039 9.59999H0.950391V8.33999H24.4704L66.7504 78.9C68.4304 81.56 69.4104 83.52 69.4104 84.08H70.3904C70.2504 82.54 70.2504 80.58 70.2504 78.2V18.42C70.2504 11.7 67.7304 9.59999 60.3104 9.59999H53.4504V8.33999H85.0904V9.59999H82.7104C75.2904 9.59999 72.7704 11.7 72.7704 18.42V111.66H71.6504C71.6504 109.84 69.2704 106.34 67.3104 102.98L19.5704 24.16C18.0304 21.5 16.4904 19.26 16.4904 18.7H15.6504C15.9304 20.24 15.9304 22.34 15.9304 24.72V100.32C15.9304 107.04 16.7704 107.74 24.1904 107.74H28.2504V109ZM148.351 110.12C114.051 110.12 91.2307 89.54 91.2307 58.6C91.2307 27.8 114.051 7.21999 148.351 7.21999C182.371 7.21999 205.191 27.8 205.191 58.6C205.191 89.54 182.371 110.12 148.351 110.12ZM148.911 107.6C176.771 107.6 191.751 91.36 191.751 61.26C191.751 27.8 176.351 9.73999 147.791 9.73999C119.791 9.73999 104.671 25.98 104.671 56.08C104.671 89.54 120.071 107.6 148.911 107.6ZM205.722 8.33999H236.242V9.59999H224.342V9.88C226.442 10.58 228.122 13.94 229.102 16.32L264.522 94.3C264.662 94.72 265.782 97.38 265.782 99.34H267.742C267.742 98.64 267.882 96.68 269.282 93.74L303.862 18.28C304.422 16.88 304.702 15.62 304.702 14.5C304.702 11.56 302.602 9.59999 297.282 9.59999H284.122V8.33999H317.722V9.59999H315.762C310.302 9.59999 309.602 12.12 306.942 18.28L266.202 109.7L257.942 110.26L217.062 18.28C214.262 11.98 213.562 9.59999 207.962 9.59999H205.722V8.33999ZM321.693 109V107.74H327.013C334.433 107.74 335.273 107.18 335.273 100.46V16.88C335.273 10.16 334.433 9.59999 327.013 9.59999H321.693V8.33999H360.893V9.88H355.573C348.153 9.88 347.173 10.44 347.173 17.16V100.46C347.173 107.18 348.153 107.74 355.573 107.74H360.893V109H321.693ZM366.4 109L366.82 107.74H372.28C379.56 107.74 380.4 106.9 380.4 99.06V17.02C380.4 10.3 379.56 9.59999 372.28 9.59999H366.82V8.33999H402.1V9.59999H400.7C393.28 9.59999 392.44 10.3 392.44 17.02V48.52C397.9 48.52 400.98 48.24 402.38 46.56L426.74 18.7C428.56 16.46 429.4 14.78 429.4 13.38C429.4 10.72 426.18 9.59999 421.42 9.59999H420.02V8.33999H454.04V9.59999H452.08C445.36 9.59999 435.98 11.84 429.54 19.26L405.04 47.4L405.18 47.96C424.64 52.02 430.66 64.62 433.18 77.08C436.26 92.2 434.72 107.18 446.62 107.18C448.58 107.18 451.1 106.34 453.9 104.38L455.86 102.98L456.7 103.96L454.74 105.36C450.4 108.86 446.2 110.54 442.14 110.54C425.62 110.54 424.08 94.16 420.86 78.48C417.78 63.92 413.16 49.78 393.84 49.78H391.88V99.06C391.88 106.9 392.86 107.74 400.28 107.74H405.6V109H366.4ZM513.253 110.12C478.953 110.12 456.133 89.54 456.133 58.6C456.133 27.8 478.953 7.21999 513.253 7.21999C547.273 7.21999 570.093 27.8 570.093 58.6C570.093 89.54 547.273 110.12 513.253 110.12ZM513.813 107.6C541.673 107.6 556.653 91.36 556.653 61.26C556.653 27.8 541.253 9.73999 512.693 9.73999C484.693 9.73999 469.573 25.98 469.573 56.08C469.573 89.54 484.973 107.6 513.813 107.6ZM570.625 8.33999H601.145V9.59999H589.245V9.88C591.345 10.58 593.025 13.94 594.005 16.32L629.425 94.3C629.565 94.72 630.685 97.38 630.685 99.34H632.645C632.645 98.64 632.785 96.68 634.185 93.74L668.765 18.28C669.325 16.88 669.605 15.62 669.605 14.5C669.605 11.56 667.505 9.59999 662.185 9.59999H649.025V8.33999H682.625V9.59999H680.665C675.205 9.59999 674.505 12.12 671.845 18.28L631.105 109.7L622.845 110.26L581.965 18.28C579.165 11.98 578.465 9.59999 572.865 9.59999H570.625V8.33999ZM727.611 109V107.74H732.931C740.351 107.74 741.191 107.18 741.191 100.46V16.88C741.191 10.16 740.351 9.59999 732.931 9.59999H727.611V8.33999L766.811 8.33999V9.88L761.491 9.88C754.071 9.88 753.091 10.44 753.091 17.16V100.46C753.091 107.18 754.071 107.74 761.491 107.74H766.811V109H727.611ZM799.618 109H772.318V107.74H776.238C783.658 107.74 784.638 107.04 784.638 100.32V17.02C784.638 10.3 783.658 9.59999 776.238 9.59999H772.318V8.33999H795.838L838.118 78.9C839.798 81.56 840.778 83.52 840.778 84.08H841.758C841.618 82.54 841.618 80.58 841.618 78.2V18.42C841.618 11.7 839.098 9.59999 831.678 9.59999H824.818V8.33999H856.458V9.59999H854.078C846.658 9.59999 844.138 11.7 844.138 18.42V111.66H843.018C843.018 109.84 840.638 106.34 838.678 102.98L790.938 24.16C789.398 21.5 787.858 19.26 787.858 18.7H787.018C787.298 20.24 787.298 22.34 787.298 24.72V100.32C787.298 107.04 788.138 107.74 795.558 107.74H799.618V109ZM874.748 109V107.74H886.508C893.928 107.74 894.628 107.04 894.628 100.32V10.86H885.388C870.548 10.86 865.368 13.52 864.668 26.96L864.108 32.7L861.308 32.56L863.688 0.0799921L865.368 0.219999L864.668 8.33999H936.348L935.648 0.359997L937.328 0.219999L939.568 32.56L936.768 32.7L936.348 26.96C935.228 13.52 930.328 10.86 915.628 10.86H906.668V100.32C906.668 107.04 907.368 107.74 914.788 107.74H926.268V109H874.748ZM994.42 80.16H993.02V72.46C993.02 59.02 985.04 57.48 976.36 57.48H970.2V99.06C970.2 102.14 968.66 104.66 966.84 106.34V106.48H997.5C1012.34 106.48 1019.34 101.02 1020.46 87.58L1021.44 76.38H1023.82L1021.16 114.32L1019.9 114.18L1020.32 107.74H1020.18C1019.06 108.72 1016.96 109 1014.44 109H944.72V107.74H950.04C957.46 107.74 958.3 107.04 958.3 100.32V17.02C958.3 10.3 957.46 9.59999 950.04 9.59999H944.72V8.33999H1006.18C1008.56 8.33999 1010.8 8.62 1011.78 9.59999H1012.06L1011.5 3.15999L1012.9 3.02L1015.7 40.96H1012.9L1012.34 31.16C1011.36 16.04 1003.38 10.86 988.54 10.86H966.84V11C968.66 12.68 970.2 15.2 970.2 18.28V54.96H976.36C985.04 54.96 993.02 53.56 993.02 40.12V35.22H994.42V80.16ZM1029.76 109L1029.62 107.88H1034.94C1042.36 107.88 1043.2 107.18 1043.2 100.46V17.16C1043.2 10.44 1042.36 9.73999 1034.94 9.73999H1029.62V8.47999H1069.8C1094.44 8.47999 1110.68 20.94 1110.68 39.56C1110.68 56.64 1096.54 68.26 1078.06 69.8L1074.98 69.94V70.78C1082.26 71.48 1088.7 75.54 1092.06 80.44L1099.76 91.5C1103.82 97.24 1109 105.92 1115.02 105.92C1116.42 105.92 1117.96 105.36 1119.5 104.24L1122.86 101.58L1123.7 102.56L1120.34 105.22C1115.3 109 1111.24 110.54 1107.46 110.54C1099.62 110.54 1094.3 103.26 1089.54 96.4L1078.76 81.28C1073.58 74.14 1070.36 70.5 1063.5 70.5H1061.68V68.12H1068.68C1087.44 68.12 1097.52 58.04 1097.52 39.42C1097.52 20.8 1087.44 10.86 1068.68 10.86H1052.72V11C1054.54 12.68 1055.24 15.06 1055.24 18.28V100.32C1055.24 107.04 1056.22 107.74 1063.64 107.74H1072.6V109H1029.76ZM1151.94 109H1124.64V107.74H1128.56C1135.98 107.74 1136.96 107.04 1136.96 100.32V17.02C1136.96 10.3 1135.98 9.59999 1128.56 9.59999H1124.64V8.33999H1148.16L1190.44 78.9C1192.12 81.56 1193.1 83.52 1193.1 84.08H1194.08C1193.94 82.54 1193.94 80.58 1193.94 78.2V18.42C1193.94 11.7 1191.42 9.59999 1184 9.59999H1177.14V8.33999H1208.78V9.59999H1206.4C1198.98 9.59999 1196.46 11.7 1196.46 18.42V111.66H1195.34C1195.34 109.84 1192.96 106.34 1191 102.98L1143.26 24.16C1141.72 21.5 1140.18 19.26 1140.18 18.7H1139.34C1139.62 20.24 1139.62 22.34 1139.62 24.72V100.32C1139.62 107.04 1140.46 107.74 1147.88 107.74H1151.94V109ZM1206.23 109V107.74H1208.61C1212.53 107.74 1214.77 103.82 1217.15 99.06L1260.41 8.33999H1272.31V10.02C1272.31 12.82 1272.87 16.46 1273.71 18.14L1309.97 99.06C1313.05 105.78 1313.61 107.74 1319.07 107.74H1320.33V109H1290.93V107.74H1302.69V107.46C1300.59 106.76 1299.05 103.26 1297.93 100.88L1289.39 81.7H1228.35L1220.09 99.06C1219.67 100.18 1219.25 101.3 1219.25 102.28C1219.25 105.5 1222.05 107.74 1226.67 107.74H1234.23V109H1206.23ZM1229.61 79.18H1288.27L1262.09 20.8C1260.97 18.56 1260.83 16.74 1260.83 15.2H1259.43C1259.43 16.04 1259.01 17.86 1257.61 20.8L1229.61 79.18ZM1325.78 109V107.74H1337.54C1344.96 107.74 1345.66 107.04 1345.66 100.32V10.86H1336.42C1321.58 10.86 1316.4 13.52 1315.7 26.96L1315.14 32.7L1312.34 32.56L1314.72 0.0799921L1316.4 0.219999L1315.7 8.33999H1387.38L1386.68 0.359997L1388.36 0.219999L1390.6 32.56L1387.8 32.7L1387.38 26.96C1386.26 13.52 1381.36 10.86 1366.66 10.86H1357.7V100.32C1357.7 107.04 1358.4 107.74 1365.82 107.74H1377.3V109H1325.78ZM1395.76 109V107.74H1401.08C1408.5 107.74 1409.34 107.18 1409.34 100.46V16.88C1409.34 10.16 1408.5 9.59999 1401.08 9.59999H1395.76V8.33999H1434.96V9.88H1429.64C1422.22 9.88 1421.24 10.44 1421.24 17.16V100.46C1421.24 107.18 1422.22 107.74 1429.64 107.74H1434.96V109H1395.76ZM1499.54 110.12C1465.24 110.12 1442.42 89.54 1442.42 58.6C1442.42 27.8 1465.24 7.21999 1499.54 7.21999C1533.56 7.21999 1556.38 27.8 1556.38 58.6C1556.38 89.54 1533.56 110.12 1499.54 110.12ZM1500.1 107.6C1527.96 107.6 1542.94 91.36 1542.94 61.26C1542.94 27.8 1527.54 9.73999 1498.98 9.73999C1470.98 9.73999 1455.86 25.98 1455.86 56.08C1455.86 89.54 1471.26 107.6 1500.1 107.6ZM1591.22 109H1563.92V107.74H1567.84C1575.26 107.74 1576.24 107.04 1576.24 100.32V17.02C1576.24 10.3 1575.26 9.59999 1567.84 9.59999H1563.92V8.33999H1587.44L1629.72 78.9C1631.4 81.56 1632.38 83.52 1632.38 84.08H1633.36C1633.22 82.54 1633.22 80.58 1633.22 78.2V18.42C1633.22 11.7 1630.7 9.59999 1623.28 9.59999H1616.42V8.33999H1648.06V9.59999H1645.68C1638.26 9.59999 1635.74 11.7 1635.74 18.42V111.66H1634.62C1634.62 109.84 1632.24 106.34 1630.28 102.98L1582.54 24.16C1581 21.5 1579.46 19.26 1579.46 18.7H1578.62C1578.9 20.24 1578.9 22.34 1578.9 24.72V100.32C1578.9 107.04 1579.74 107.74 1587.16 107.74H1591.22V109ZM1645.5 109V107.74H1647.88C1651.8 107.74 1654.04 103.82 1656.42 99.06L1699.68 8.33999H1711.58V10.02C1711.58 12.82 1712.14 16.46 1712.98 18.14L1749.24 99.06C1752.32 105.78 1752.88 107.74 1758.34 107.74H1759.6V109H1730.2V107.74H1741.96V107.46C1739.86 106.76 1738.32 103.26 1737.2 100.88L1728.66 81.7H1667.62L1659.36 99.06C1658.94 100.18 1658.52 101.3 1658.52 102.28C1658.52 105.5 1661.32 107.74 1665.94 107.74H1673.5V109H1645.5ZM1668.88 79.18H1727.54L1701.36 20.8C1700.24 18.56 1700.1 16.74 1700.1 15.2H1698.7C1698.7 16.04 1698.28 17.86 1696.88 20.8L1668.88 79.18ZM1763.8 109V107.74H1769.12C1776.54 107.74 1777.38 106.06 1777.38 99.34V16.88C1777.38 10.16 1776.54 9.59999 1769.12 9.59999H1763.8V8.33999L1803 8.33999V9.59999H1797.68C1790.26 9.59999 1789.28 10.16 1789.28 16.88V99.06C1789.28 102.14 1787.74 104.66 1785.92 106.34V106.48H1806.78C1821.48 106.48 1831.42 103.82 1832.68 90.38L1833.8 76.38H1836.88L1833.8 116.14L1832.26 116L1832.96 107.74H1832.82C1831.7 108.72 1831.14 109 1828.62 109H1763.8ZM1975.04 70.5H1840.64V66.72H1975.04V70.5ZM2007.8 109H1980.5V107.74H1984.42C1991.84 107.74 1992.82 107.04 1992.82 100.32V17.02C1992.82 10.3 1991.84 9.59999 1984.42 9.59999H1980.5V8.33999H2004.02L2046.3 78.9C2047.98 81.56 2048.96 83.52 2048.96 84.08H2049.94C2049.8 82.54 2049.8 80.58 2049.8 78.2V18.42C2049.8 11.7 2047.28 9.59999 2039.86 9.59999H2033V8.33999H2064.64V9.59999H2062.26C2054.84 9.59999 2052.32 11.7 2052.32 18.42V111.66H2051.2C2051.2 109.84 2048.82 106.34 2046.86 102.98L1999.12 24.16C1997.58 21.5 1996.04 19.26 1996.04 18.7H1995.2C1995.48 20.24 1995.48 22.34 1995.48 24.72V100.32C1995.48 107.04 1996.32 107.74 2003.74 107.74H2007.8V109ZM2127.9 110.12C2093.6 110.12 2070.78 89.54 2070.78 58.6C2070.78 27.8 2093.6 7.21999 2127.9 7.21999C2161.92 7.21999 2184.74 27.8 2184.74 58.6C2184.74 89.54 2161.92 110.12 2127.9 110.12ZM2128.46 107.6C2156.32 107.6 2171.3 91.36 2171.3 61.26C2171.3 27.8 2155.9 9.73999 2127.34 9.73999C2099.34 9.73999 2084.22 25.98 2084.22 56.08C2084.22 89.54 2099.62 107.6 2128.46 107.6ZM2185.27 8.33999H2215.79V9.59999H2203.89V9.88C2205.99 10.58 2207.67 13.94 2208.65 16.32L2244.07 94.3C2244.21 94.72 2245.33 97.38 2245.33 99.34H2247.29C2247.29 98.64 2247.43 96.68 2248.83 93.74L2283.41 18.28C2283.97 16.88 2284.25 15.62 2284.25 14.5C2284.25 11.56 2282.15 9.59999 2276.83 9.59999H2263.67V8.33999H2297.27V9.59999H2295.31C2289.85 9.59999 2289.15 12.12 2286.49 18.28L2245.75 109.7L2237.49 110.26L2196.61 18.28C2193.81 11.98 2193.11 9.59999 2187.51 9.59999H2185.27V8.33999ZM2301.24 109V107.74H2306.56C2313.98 107.74 2314.82 107.18 2314.82 100.46V16.88C2314.82 10.16 2313.98 9.59999 2306.56 9.59999L2301.24 9.59999V8.33999L2340.44 8.33999V9.88H2335.12C2327.7 9.88 2326.72 10.44 2326.72 17.16V100.46C2326.72 107.18 2327.7 107.74 2335.12 107.74H2340.44V109H2301.24ZM2345.95 109L2346.37 107.74H2351.83C2359.11 107.74 2359.95 106.9 2359.95 99.06V17.02C2359.95 10.3 2359.11 9.59999 2351.83 9.59999H2346.37V8.33999H2381.65V9.59999H2380.25C2372.83 9.59999 2371.99 10.3 2371.99 17.02V48.52C2377.45 48.52 2380.53 48.24 2381.93 46.56L2406.29 18.7C2408.11 16.46 2408.95 14.78 2408.95 13.38C2408.95 10.72 2405.73 9.59999 2400.97 9.59999H2399.57V8.33999H2433.59V9.59999H2431.63C2424.91 9.59999 2415.53 11.84 2409.09 19.26L2384.59 47.4L2384.73 47.96C2404.19 52.02 2410.21 64.62 2412.73 77.08C2415.81 92.2 2414.27 107.18 2426.17 107.18C2428.13 107.18 2430.65 106.34 2433.45 104.38L2435.41 102.98L2436.25 103.96L2434.29 105.36C2429.95 108.86 2425.75 110.54 2421.69 110.54C2405.17 110.54 2403.63 94.16 2400.41 78.48C2397.33 63.92 2392.71 49.78 2373.39 49.78H2371.43V99.06C2371.43 106.9 2372.41 107.74 2379.83 107.74H2385.15V109H2345.95ZM2492.8 110.12C2458.5 110.12 2435.68 89.54 2435.68 58.6C2435.68 27.8 2458.5 7.21999 2492.8 7.21999C2526.82 7.21999 2549.64 27.8 2549.64 58.6C2549.64 89.54 2526.82 110.12 2492.8 110.12ZM2493.36 107.6C2521.22 107.6 2536.2 91.36 2536.2 61.26C2536.2 27.8 2520.8 9.73999 2492.24 9.73999C2464.24 9.73999 2449.12 25.98 2449.12 56.08C2449.12 89.54 2464.52 107.6 2493.36 107.6ZM2550.18 8.33999H2580.7V9.59999H2568.8V9.88C2570.9 10.58 2572.58 13.94 2573.56 16.32L2608.98 94.3C2609.12 94.72 2610.24 97.38 2610.24 99.34H2612.2C2612.2 98.64 2612.34 96.68 2613.74 93.74L2648.32 18.28C2648.88 16.88 2649.16 15.62 2649.16 14.5C2649.16 11.56 2647.06 9.59999 2641.74 9.59999H2628.58V8.33999H2662.18V9.59999H2660.22C2654.76 9.59999 2654.06 12.12 2651.4 18.28L2610.66 109.7L2602.4 110.26L2561.52 18.28C2558.72 11.98 2558.02 9.59999 2552.42 9.59999H2550.18V8.33999ZM2707.16 109V107.74H2712.48C2719.9 107.74 2720.74 107.18 2720.74 100.46V16.88C2720.74 10.16 2719.9 9.59999 2712.48 9.59999H2707.16V8.33999H2746.36V9.88H2741.04C2733.62 9.88 2732.64 10.44 2732.64 17.16V100.46C2732.64 107.18 2733.62 107.74 2741.04 107.74H2746.36V109H2707.16ZM2779.17 109H2751.87V107.74H2755.79C2763.21 107.74 2764.19 107.04 2764.19 100.32V17.02C2764.19 10.3 2763.21 9.59999 2755.79 9.59999H2751.87V8.33999H2775.39L2817.67 78.9C2819.35 81.56 2820.33 83.52 2820.33 84.08H2821.31C2821.17 82.54 2821.17 80.58 2821.17 78.2V18.42C2821.17 11.7 2818.65 9.59999 2811.23 9.59999H2804.37V8.33999L2836.01 8.33999V9.59999H2833.63C2826.21 9.59999 2823.69 11.7 2823.69 18.42V111.66H2822.57C2822.57 109.84 2820.19 106.34 2818.23 102.98L2770.49 24.16C2768.95 21.5 2767.41 19.26 2767.41 18.7H2766.57C2766.85 20.24 2766.85 22.34 2766.85 24.72V100.32C2766.85 107.04 2767.69 107.74 2775.11 107.74H2779.17V109ZM2854.3 109V107.74H2866.06C2873.48 107.74 2874.18 107.04 2874.18 100.32V10.86H2864.94C2850.1 10.86 2844.92 13.52 2844.22 26.96L2843.66 32.7L2840.86 32.56L2843.24 0.0799921L2844.92 0.219999L2844.22 8.33999H2915.9L2915.2 0.359997L2916.88 0.219999L2919.12 32.56L2916.32 32.7L2915.9 26.96C2914.78 13.52 2909.88 10.86 2895.18 10.86H2886.22V100.32C2886.22 107.04 2886.92 107.74 2894.34 107.74H2905.82V109H2854.3ZM2973.97 80.16H2972.57V72.46C2972.57 59.02 2964.59 57.48 2955.91 57.48H2949.75V99.06C2949.75 102.14 2948.21 104.66 2946.39 106.34V106.48H2977.05C2991.89 106.48 2998.89 101.02 3000.01 87.58L3000.99 76.38H3003.37L3000.71 114.32L2999.45 114.18L2999.87 107.74H2999.73C2998.61 108.72 2996.51 109 2993.99 109H2924.27V107.74H2929.59C2937.01 107.74 2937.85 107.04 2937.85 100.32V17.02C2937.85 10.3 2937.01 9.59999 2929.59 9.59999H2924.27V8.33999H2985.73C2988.11 8.33999 2990.35 8.62 2991.33 9.59999H2991.61L2991.05 3.15999L2992.45 3.02L2995.25 40.96H2992.45L2991.89 31.16C2990.91 16.04 2982.93 10.86 2968.09 10.86H2946.39V11C2948.21 12.68 2949.75 15.2 2949.75 18.28V54.96H2955.91C2964.59 54.96 2972.57 53.56 2972.57 40.12V35.22H2973.97V80.16ZM3009.31 109L3009.17 107.88H3014.49C3021.91 107.88 3022.75 107.18 3022.75 100.46V17.16C3022.75 10.44 3021.91 9.73999 3014.49 9.73999H3009.17V8.47999H3049.35C3073.99 8.47999 3090.23 20.94 3090.23 39.56C3090.23 56.64 3076.09 68.26 3057.61 69.8L3054.53 69.94V70.78C3061.81 71.48 3068.25 75.54 3071.61 80.44L3079.31 91.5C3083.37 97.24 3088.55 105.92 3094.57 105.92C3095.97 105.92 3097.51 105.36 3099.05 104.24L3102.41 101.58L3103.25 102.56L3099.89 105.22C3094.85 109 3090.79 110.54 3087.01 110.54C3079.17 110.54 3073.85 103.26 3069.09 96.4L3058.31 81.28C3053.13 74.14 3049.91 70.5 3043.05 70.5H3041.23V68.12H3048.23C3066.99 68.12 3077.07 58.04 3077.07 39.42C3077.07 20.8 3066.99 10.86 3048.23 10.86H3032.27V11C3034.09 12.68 3034.79 15.06 3034.79 18.28V100.32C3034.79 107.04 3035.77 107.74 3043.19 107.74H3052.15V109H3009.31ZM3131.49 109H3104.19V107.74H3108.11C3115.53 107.74 3116.51 107.04 3116.51 100.32V17.02C3116.51 10.3 3115.53 9.59999 3108.11 9.59999H3104.19V8.33999H3127.71L3169.99 78.9C3171.67 81.56 3172.65 83.52 3172.65 84.08H3173.63C3173.49 82.54 3173.49 80.58 3173.49 78.2V18.42C3173.49 11.7 3170.97 9.59999 3163.55 9.59999H3156.69V8.33999H3188.33V9.59999H3185.95C3178.53 9.59999 3176.01 11.7 3176.01 18.42V111.66H3174.89C3174.89 109.84 3172.51 106.34 3170.55 102.98L3122.81 24.16C3121.27 21.5 3119.73 19.26 3119.73 18.7H3118.89C3119.17 20.24 3119.17 22.34 3119.17 24.72V100.32C3119.17 107.04 3120.01 107.74 3127.43 107.74H3131.49V109ZM3185.78 109V107.74H3188.16C3192.08 107.74 3194.32 103.82 3196.7 99.06L3239.96 8.33999H3251.86V10.02C3251.86 12.82 3252.42 16.46 3253.26 18.14L3289.52 99.06C3292.6 105.78 3293.16 107.74 3298.62 107.74H3299.88V109H3270.48V107.74H3282.24V107.46C3280.14 106.76 3278.6 103.26 3277.48 100.88L3268.94 81.7H3207.9L3199.64 99.06C3199.22 100.18 3198.8 101.3 3198.8 102.28C3198.8 105.5 3201.6 107.74 3206.22 107.74H3213.78V109H3185.78ZM3209.16 79.18H3267.82L3241.64 20.8C3240.52 18.56 3240.38 16.74 3240.38 15.2H3238.98C3238.98 16.04 3238.56 17.86 3237.16 20.8L3209.16 79.18ZM3305.33 109V107.74H3317.09C3324.51 107.74 3325.21 107.04 3325.21 100.32V10.86H3315.97C3301.13 10.86 3295.95 13.52 3295.25 26.96L3294.69 32.7L3291.89 32.56L3294.27 0.0799921L3295.95 0.219999L3295.25 8.33999L3366.93 8.33999L3366.23 0.359997L3367.91 0.219999L3370.15 32.56L3367.35 32.7L3366.93 26.96C3365.81 13.52 3360.91 10.86 3346.21 10.86H3337.25V100.32C3337.25 107.04 3337.95 107.74 3345.37 107.74H3356.85V109H3305.33ZM3375.31 109V107.74H3380.63C3388.05 107.74 3388.89 107.18 3388.89 100.46V16.88C3388.89 10.16 3388.05 9.59999 3380.63 9.59999H3375.31V8.33999H3414.51V9.88H3409.19C3401.77 9.88 3400.79 10.44 3400.79 17.16V100.46C3400.79 107.18 3401.77 107.74 3409.19 107.74H3414.51V109H3375.31ZM3479.09 110.12C3444.79 110.12 3421.97 89.54 3421.97 58.6C3421.97 27.8 3444.79 7.21999 3479.09 7.21999C3513.11 7.21999 3535.93 27.8 3535.93 58.6C3535.93 89.54 3513.11 110.12 3479.09 110.12ZM3479.65 107.6C3507.51 107.6 3522.49 91.36 3522.49 61.26C3522.49 27.8 3507.09 9.73999 3478.53 9.73999C3450.53 9.73999 3435.41 25.98 3435.41 56.08C3435.41 89.54 3450.81 107.6 3479.65 107.6ZM3570.77 109H3543.47V107.74H3547.39C3554.81 107.74 3555.79 107.04 3555.79 100.32V17.02C3555.79 10.3 3554.81 9.59999 3547.39 9.59999H3543.47V8.33999H3566.99L3609.27 78.9C3610.95 81.56 3611.93 83.52 3611.93 84.08H3612.91C3612.77 82.54 3612.77 80.58 3612.77 78.2V18.42C3612.77 11.7 3610.25 9.59999 3602.83 9.59999H3595.97V8.33999H3627.61V9.59999H3625.23C3617.81 9.59999 3615.29 11.7 3615.29 18.42V111.66H3614.17C3614.17 109.84 3611.79 106.34 3609.83 102.98L3562.09 24.16C3560.55 21.5 3559.01 19.26 3559.01 18.7H3558.17C3558.45 20.24 3558.45 22.34 3558.45 24.72V100.32C3558.45 107.04 3559.29 107.74 3566.71 107.74H3570.77V109ZM3625.05 109V107.74H3627.43C3631.35 107.74 3633.59 103.82 3635.97 99.06L3679.23 8.33999H3691.13V10.02C3691.13 12.82 3691.69 16.46 3692.53 18.14L3728.79 99.06C3731.87 105.78 3732.43 107.74 3737.89 107.74H3739.15V109H3709.75V107.74H3721.51V107.46C3719.41 106.76 3717.87 103.26 3716.75 100.88L3708.21 81.7H3647.17L3638.91 99.06C3638.49 100.18 3638.07 101.3 3638.07 102.28C3638.07 105.5 3640.87 107.74 3645.49 107.74H3653.05V109H3625.05ZM3648.43 79.18H3707.09L3680.91 20.8C3679.79 18.56 3679.65 16.74 3679.65 15.2H3678.25C3678.25 16.04 3677.83 17.86 3676.43 20.8L3648.43 79.18ZM3743.35 109V107.74H3748.67C3756.09 107.74 3756.93 106.06 3756.93 99.34V16.88C3756.93 10.16 3756.09 9.59999 3748.67 9.59999H3743.35V8.33999H3782.55V9.59999H3777.23C3769.81 9.59999 3768.83 10.16 3768.83 16.88V99.06C3768.83 102.14 3767.29 104.66 3765.47 106.34V106.48H3786.33C3801.03 106.48 3810.97 103.82 3812.23 90.38L3813.35 76.38H3816.43L3813.35 116.14L3811.81 116L3812.51 107.74H3812.37C3811.25 108.72 3810.69 109 3808.17 109H3743.35Z" fill="black"/>
</svg>
