<svg width="3720" height="117" viewBox="0 0 3720 117" fill="none" xmlns="http://www.w3.org/2000/svg">
<path d="M27.4438 109H0.14375V107.74H4.06375C11.4838 107.74 12.4638 107.04 12.4638 100.32L12.4638 17.02C12.4638 10.3 11.4838 9.59999 4.06375 9.59999H0.14375V8.33999H23.6638L65.9438 78.9C67.6238 81.56 68.6038 83.52 68.6038 84.08H69.5838C69.4438 82.54 69.4438 80.58 69.4438 78.2V18.42C69.4438 11.7 66.9238 9.59999 59.5038 9.59999H52.6438V8.33999H84.2838V9.59999H81.9038C74.4837 9.59999 71.9638 11.7 71.9638 18.42V111.66H70.8438C70.8438 109.84 68.4638 106.34 66.5038 102.98L18.7638 24.16C17.2238 21.5 15.6838 19.26 15.6838 18.7H14.8438C15.1238 20.24 15.1238 22.34 15.1238 24.72V100.32C15.1238 107.04 15.9638 107.74 23.3838 107.74H27.4438V109ZM147.544 110.12C113.244 110.12 90.4241 89.54 90.4241 58.6C90.4241 27.8 113.244 7.21999 147.544 7.21999C181.564 7.21999 204.384 27.8 204.384 58.6C204.384 89.54 181.564 110.12 147.544 110.12ZM148.104 107.6C175.964 107.6 190.944 91.36 190.944 61.26C190.944 27.8 175.544 9.73999 146.984 9.73999C118.984 9.73999 103.864 25.98 103.864 56.08C103.864 89.54 119.264 107.6 148.104 107.6ZM204.916 8.33999H235.436V9.59999H223.536V9.88C225.636 10.58 227.316 13.94 228.296 16.32L263.716 94.3C263.856 94.72 264.976 97.38 264.976 99.34H266.936C266.936 98.64 267.076 96.68 268.476 93.74L303.056 18.28C303.616 16.88 303.896 15.62 303.896 14.5C303.896 11.56 301.796 9.59999 296.476 9.59999H283.316V8.33999H316.916V9.59999H314.956C309.496 9.59999 308.796 12.12 306.136 18.28L265.396 109.7L257.136 110.26L216.256 18.28C213.456 11.98 212.756 9.59999 207.156 9.59999H204.916V8.33999ZM320.886 109V107.74H326.206C333.626 107.74 334.466 107.18 334.466 100.46V16.88C334.466 10.16 333.626 9.59999 326.206 9.59999H320.886V8.33999H360.086V9.88H354.766C347.346 9.88 346.366 10.44 346.366 17.16V100.46C346.366 107.18 347.346 107.74 354.766 107.74H360.086V109H320.886ZM365.593 109L366.013 107.74H371.473C378.753 107.74 379.593 106.9 379.593 99.06V17.02C379.593 10.3 378.753 9.59999 371.473 9.59999H366.013V8.33999H401.293V9.59999H399.893C392.473 9.59999 391.633 10.3 391.633 17.02V48.52C397.093 48.52 400.173 48.24 401.573 46.56L425.933 18.7C427.753 16.46 428.593 14.78 428.593 13.38C428.593 10.72 425.373 9.59999 420.613 9.59999H419.213V8.33999H453.233V9.59999H451.273C444.553 9.59999 435.173 11.84 428.733 19.26L404.233 47.4L404.373 47.96C423.833 52.02 429.853 64.62 432.373 77.08C435.453 92.2 433.913 107.18 445.813 107.18C447.773 107.18 450.293 106.34 453.093 104.38L455.053 102.98L455.893 103.96L453.933 105.36C449.593 108.86 445.393 110.54 441.333 110.54C424.813 110.54 423.273 94.16 420.053 78.48C416.973 63.92 412.353 49.78 393.033 49.78H391.073V99.06C391.073 106.9 392.053 107.74 399.473 107.74H404.793V109H365.593ZM512.446 110.12C478.146 110.12 455.326 89.54 455.326 58.6C455.326 27.8 478.146 7.21999 512.446 7.21999C546.466 7.21999 569.286 27.8 569.286 58.6C569.286 89.54 546.466 110.12 512.446 110.12ZM513.006 107.6C540.866 107.6 555.846 91.36 555.846 61.26C555.846 27.8 540.446 9.73999 511.886 9.73999C483.886 9.73999 468.766 25.98 468.766 56.08C468.766 89.54 484.166 107.6 513.006 107.6ZM569.818 8.33999H600.338V9.59999H588.438V9.88C590.538 10.58 592.218 13.94 593.198 16.32L628.618 94.3C628.758 94.72 629.878 97.38 629.878 99.34H631.838C631.838 98.64 631.978 96.68 633.378 93.74L667.958 18.28C668.518 16.88 668.798 15.62 668.798 14.5C668.798 11.56 666.698 9.59999 661.378 9.59999H648.218V8.33999H681.818V9.59999H679.858C674.398 9.59999 673.698 12.12 671.038 18.28L630.298 109.7L622.038 110.26L581.158 18.28C578.358 11.98 577.658 9.59999 572.058 9.59999H569.818V8.33999ZM726.804 109V107.74H732.124C739.544 107.74 740.384 107.18 740.384 100.46V16.88C740.384 10.16 739.544 9.59999 732.124 9.59999H726.804V8.33999L766.004 8.33999V9.88L760.684 9.88C753.264 9.88 752.284 10.44 752.284 17.16V100.46C752.284 107.18 753.264 107.74 760.684 107.74H766.004V109H726.804ZM798.811 109H771.511V107.74H775.431C782.851 107.74 783.831 107.04 783.831 100.32V17.02C783.831 10.3 782.851 9.59999 775.431 9.59999H771.511V8.33999H795.031L837.311 78.9C838.991 81.56 839.971 83.52 839.971 84.08H840.951C840.811 82.54 840.811 80.58 840.811 78.2V18.42C840.811 11.7 838.291 9.59999 830.871 9.59999H824.011V8.33999H855.651V9.59999H853.271C845.851 9.59999 843.331 11.7 843.331 18.42V111.66H842.211C842.211 109.84 839.831 106.34 837.871 102.98L790.131 24.16C788.591 21.5 787.051 19.26 787.051 18.7H786.211C786.491 20.24 786.491 22.34 786.491 24.72V100.32C786.491 107.04 787.331 107.74 794.751 107.74H798.811V109ZM873.942 109V107.74H885.702C893.122 107.74 893.822 107.04 893.822 100.32V10.86H884.582C869.742 10.86 864.562 13.52 863.862 26.96L863.302 32.7L860.502 32.56L862.882 0.0799921L864.562 0.219999L863.862 8.33999H935.542L934.842 0.359997L936.522 0.219999L938.762 32.56L935.962 32.7L935.542 26.96C934.422 13.52 929.522 10.86 914.822 10.86H905.862V100.32C905.862 107.04 906.562 107.74 913.982 107.74H925.462V109H873.942ZM993.613 80.16H992.213V72.46C992.213 59.02 984.233 57.48 975.553 57.48H969.393V99.06C969.393 102.14 967.853 104.66 966.033 106.34V106.48H996.693C1011.53 106.48 1018.53 101.02 1019.65 87.58L1020.63 76.38H1023.01L1020.35 114.32L1019.09 114.18L1019.51 107.74H1019.37C1018.25 108.72 1016.15 109 1013.63 109H943.913V107.74H949.233C956.653 107.74 957.493 107.04 957.493 100.32V17.02C957.493 10.3 956.653 9.59999 949.233 9.59999H943.913V8.33999H1005.37C1007.75 8.33999 1009.99 8.62 1010.97 9.59999H1011.25L1010.69 3.15999L1012.09 3.02L1014.89 40.96H1012.09L1011.53 31.16C1010.55 16.04 1002.57 10.86 987.733 10.86H966.033V11C967.853 12.68 969.393 15.2 969.393 18.28V54.96H975.553C984.233 54.96 992.213 53.56 992.213 40.12V35.22H993.613V80.16ZM1028.95 109L1028.81 107.88H1034.13C1041.55 107.88 1042.39 107.18 1042.39 100.46V17.16C1042.39 10.44 1041.55 9.73999 1034.13 9.73999H1028.81V8.47999H1068.99C1093.63 8.47999 1109.87 20.94 1109.87 39.56C1109.87 56.64 1095.73 68.26 1077.25 69.8L1074.17 69.94V70.78C1081.45 71.48 1087.89 75.54 1091.25 80.44L1098.95 91.5C1103.01 97.24 1108.19 105.92 1114.21 105.92C1115.61 105.92 1117.15 105.36 1118.69 104.24L1122.05 101.58L1122.89 102.56L1119.53 105.22C1114.49 109 1110.43 110.54 1106.65 110.54C1098.81 110.54 1093.49 103.26 1088.73 96.4L1077.95 81.28C1072.77 74.14 1069.55 70.5 1062.69 70.5H1060.87V68.12H1067.87C1086.63 68.12 1096.71 58.04 1096.71 39.42C1096.71 20.8 1086.63 10.86 1067.87 10.86H1051.91V11C1053.73 12.68 1054.43 15.06 1054.43 18.28V100.32C1054.43 107.04 1055.41 107.74 1062.83 107.74H1071.79V109H1028.95ZM1151.14 109H1123.84V107.74H1127.76C1135.18 107.74 1136.16 107.04 1136.16 100.32V17.02C1136.16 10.3 1135.18 9.59999 1127.76 9.59999H1123.84V8.33999H1147.36L1189.64 78.9C1191.32 81.56 1192.3 83.52 1192.3 84.08H1193.28C1193.14 82.54 1193.14 80.58 1193.14 78.2V18.42C1193.14 11.7 1190.62 9.59999 1183.2 9.59999H1176.34V8.33999H1207.98V9.59999H1205.6C1198.18 9.59999 1195.66 11.7 1195.66 18.42V111.66H1194.54C1194.54 109.84 1192.16 106.34 1190.2 102.98L1142.46 24.16C1140.92 21.5 1139.38 19.26 1139.38 18.7H1138.54C1138.82 20.24 1138.82 22.34 1138.82 24.72V100.32C1138.82 107.04 1139.66 107.74 1147.08 107.74H1151.14V109ZM1205.42 109V107.74H1207.8C1211.72 107.74 1213.96 103.82 1216.34 99.06L1259.6 8.33999H1271.5V10.02C1271.5 12.82 1272.06 16.46 1272.9 18.14L1309.16 99.06C1312.24 105.78 1312.8 107.74 1318.26 107.74H1319.52V109H1290.12V107.74H1301.88V107.46C1299.78 106.76 1298.24 103.26 1297.12 100.88L1288.58 81.7H1227.54L1219.28 99.06C1218.86 100.18 1218.44 101.3 1218.44 102.28C1218.44 105.5 1221.24 107.74 1225.86 107.74H1233.42V109H1205.42ZM1228.8 79.18H1287.46L1261.28 20.8C1260.16 18.56 1260.02 16.74 1260.02 15.2H1258.62C1258.62 16.04 1258.2 17.86 1256.8 20.8L1228.8 79.18ZM1324.98 109V107.74H1336.74C1344.16 107.74 1344.86 107.04 1344.86 100.32V10.86H1335.62C1320.78 10.86 1315.6 13.52 1314.9 26.96L1314.34 32.7L1311.54 32.56L1313.92 0.0799921L1315.6 0.219999L1314.9 8.33999H1386.58L1385.88 0.359997L1387.56 0.219999L1389.8 32.56L1387 32.7L1386.58 26.96C1385.46 13.52 1380.56 10.86 1365.86 10.86H1356.9V100.32C1356.9 107.04 1357.6 107.74 1365.02 107.74H1376.5V109H1324.98ZM1394.95 109V107.74H1400.27C1407.69 107.74 1408.53 107.18 1408.53 100.46V16.88C1408.53 10.16 1407.69 9.59999 1400.27 9.59999H1394.95V8.33999H1434.15V9.88H1428.83C1421.41 9.88 1420.43 10.44 1420.43 17.16V100.46C1420.43 107.18 1421.41 107.74 1428.83 107.74H1434.15V109H1394.95ZM1498.74 110.12C1464.44 110.12 1441.62 89.54 1441.62 58.6C1441.62 27.8 1464.44 7.21999 1498.74 7.21999C1532.76 7.21999 1555.58 27.8 1555.58 58.6C1555.58 89.54 1532.76 110.12 1498.74 110.12ZM1499.3 107.6C1527.16 107.6 1542.14 91.36 1542.14 61.26C1542.14 27.8 1526.74 9.73999 1498.18 9.73999C1470.18 9.73999 1455.06 25.98 1455.06 56.08C1455.06 89.54 1470.46 107.6 1499.3 107.6ZM1590.41 109H1563.11V107.74H1567.03C1574.45 107.74 1575.43 107.04 1575.43 100.32V17.02C1575.43 10.3 1574.45 9.59999 1567.03 9.59999H1563.11V8.33999H1586.63L1628.91 78.9C1630.59 81.56 1631.57 83.52 1631.57 84.08H1632.55C1632.41 82.54 1632.41 80.58 1632.41 78.2V18.42C1632.41 11.7 1629.89 9.59999 1622.47 9.59999H1615.61V8.33999H1647.25V9.59999H1644.87C1637.45 9.59999 1634.93 11.7 1634.93 18.42V111.66H1633.81C1633.81 109.84 1631.43 106.34 1629.47 102.98L1581.73 24.16C1580.19 21.5 1578.65 19.26 1578.65 18.7H1577.81C1578.09 20.24 1578.09 22.34 1578.09 24.72V100.32C1578.09 107.04 1578.93 107.74 1586.35 107.74H1590.41V109ZM1644.7 109V107.74H1647.08C1651 107.74 1653.24 103.82 1655.62 99.06L1698.88 8.33999H1710.78V10.02C1710.78 12.82 1711.34 16.46 1712.18 18.14L1748.44 99.06C1751.52 105.78 1752.08 107.74 1757.54 107.74H1758.8V109H1729.4V107.74H1741.16V107.46C1739.06 106.76 1737.52 103.26 1736.4 100.88L1727.86 81.7H1666.82L1658.56 99.06C1658.14 100.18 1657.72 101.3 1657.72 102.28C1657.72 105.5 1660.52 107.74 1665.14 107.74H1672.7V109H1644.7ZM1668.08 79.18H1726.74L1700.56 20.8C1699.44 18.56 1699.3 16.74 1699.3 15.2H1697.9C1697.9 16.04 1697.48 17.86 1696.08 20.8L1668.08 79.18ZM1763 109V107.74H1768.32C1775.74 107.74 1776.58 106.06 1776.58 99.34V16.88C1776.58 10.16 1775.74 9.59999 1768.32 9.59999H1763V8.33999L1802.2 8.33999V9.59999H1796.88C1789.46 9.59999 1788.48 10.16 1788.48 16.88V99.06C1788.48 102.14 1786.94 104.66 1785.12 106.34V106.48H1805.98C1820.68 106.48 1830.62 103.82 1831.88 90.38L1833 76.38H1836.08L1833 116.14L1831.46 116L1832.16 107.74H1832.02C1830.9 108.72 1830.34 109 1827.82 109H1763ZM1910.61 109H1883.31V107.74H1887.23C1894.65 107.74 1895.63 107.04 1895.63 100.32V17.02C1895.63 10.3 1894.65 9.59999 1887.23 9.59999H1883.31V8.33999H1906.83L1949.11 78.9C1950.79 81.56 1951.77 83.52 1951.77 84.08H1952.75C1952.61 82.54 1952.61 80.58 1952.61 78.2V18.42C1952.61 11.7 1950.09 9.59999 1942.67 9.59999H1935.81V8.33999H1967.45V9.59999H1965.07C1957.65 9.59999 1955.13 11.7 1955.13 18.42V111.66H1954.01C1954.01 109.84 1951.63 106.34 1949.67 102.98L1901.93 24.16C1900.39 21.5 1898.85 19.26 1898.85 18.7H1898.01C1898.29 20.24 1898.29 22.34 1898.29 24.72V100.32C1898.29 107.04 1899.13 107.74 1906.55 107.74H1910.61V109ZM2030.71 110.12C1996.41 110.12 1973.59 89.54 1973.59 58.6C1973.59 27.8 1996.41 7.21999 2030.71 7.21999C2064.73 7.21999 2087.55 27.8 2087.55 58.6C2087.55 89.54 2064.73 110.12 2030.71 110.12ZM2031.27 107.6C2059.13 107.6 2074.11 91.36 2074.11 61.26C2074.11 27.8 2058.71 9.73999 2030.15 9.73999C2002.15 9.73999 1987.03 25.98 1987.03 56.08C1987.03 89.54 2002.43 107.6 2031.27 107.6ZM2088.08 8.33999H2118.6V9.59999H2106.7V9.88C2108.8 10.58 2110.48 13.94 2111.46 16.32L2146.88 94.3C2147.02 94.72 2148.14 97.38 2148.14 99.34H2150.1C2150.1 98.64 2150.24 96.68 2151.64 93.74L2186.22 18.28C2186.78 16.88 2187.06 15.62 2187.06 14.5C2187.06 11.56 2184.96 9.59999 2179.64 9.59999H2166.48V8.33999H2200.08V9.59999H2198.12C2192.66 9.59999 2191.96 12.12 2189.3 18.28L2148.56 109.7L2140.3 110.26L2099.42 18.28C2096.62 11.98 2095.92 9.59999 2090.32 9.59999H2088.08V8.33999ZM2204.05 109V107.74H2209.37C2216.79 107.74 2217.63 107.18 2217.63 100.46V16.88C2217.63 10.16 2216.79 9.59999 2209.37 9.59999H2204.05V8.33999H2243.25V9.88H2237.93C2230.51 9.88 2229.53 10.44 2229.53 17.16V100.46C2229.53 107.18 2230.51 107.74 2237.93 107.74H2243.25V109H2204.05ZM2248.76 109L2249.18 107.74H2254.64C2261.92 107.74 2262.76 106.9 2262.76 99.06V17.02C2262.76 10.3 2261.92 9.59999 2254.64 9.59999H2249.18V8.33999H2284.46V9.59999H2283.06C2275.64 9.59999 2274.8 10.3 2274.8 17.02V48.52C2280.26 48.52 2283.34 48.24 2284.74 46.56L2309.1 18.7C2310.92 16.46 2311.76 14.78 2311.76 13.38C2311.76 10.72 2308.54 9.59999 2303.78 9.59999H2302.38V8.33999H2336.4V9.59999H2334.44C2327.72 9.59999 2318.34 11.84 2311.9 19.26L2287.4 47.4L2287.54 47.96C2307 52.02 2313.02 64.62 2315.54 77.08C2318.62 92.2 2317.08 107.18 2328.98 107.18C2330.94 107.18 2333.46 106.34 2336.26 104.38L2338.22 102.98L2339.06 103.96L2337.1 105.36C2332.76 108.86 2328.56 110.54 2324.5 110.54C2307.98 110.54 2306.44 94.16 2303.22 78.48C2300.14 63.92 2295.52 49.78 2276.2 49.78H2274.24V99.06C2274.24 106.9 2275.22 107.74 2282.64 107.74H2287.96V109H2248.76ZM2395.61 110.12C2361.31 110.12 2338.49 89.54 2338.49 58.6C2338.49 27.8 2361.31 7.21999 2395.61 7.21999C2429.63 7.21999 2452.45 27.8 2452.45 58.6C2452.45 89.54 2429.63 110.12 2395.61 110.12ZM2396.17 107.6C2424.03 107.6 2439.01 91.36 2439.01 61.26C2439.01 27.8 2423.61 9.73999 2395.05 9.73999C2367.05 9.73999 2351.93 25.98 2351.93 56.08C2351.93 89.54 2367.33 107.6 2396.17 107.6ZM2452.98 8.33999H2483.5V9.59999H2471.6V9.88C2473.7 10.58 2475.38 13.94 2476.36 16.32L2511.78 94.3C2511.92 94.72 2513.04 97.38 2513.04 99.34H2515C2515 98.64 2515.14 96.68 2516.54 93.74L2551.12 18.28C2551.68 16.88 2551.96 15.62 2551.96 14.5C2551.96 11.56 2549.86 9.59999 2544.54 9.59999H2531.38V8.33999H2564.98V9.59999H2563.02C2557.56 9.59999 2556.86 12.12 2554.2 18.28L2513.46 109.7L2505.2 110.26L2464.32 18.28C2461.52 11.98 2460.82 9.59999 2455.22 9.59999H2452.98V8.33999ZM2609.97 109V107.74H2615.29C2622.71 107.74 2623.55 107.18 2623.55 100.46V16.88C2623.55 10.16 2622.71 9.59999 2615.29 9.59999H2609.97V8.33999H2649.17V9.88H2643.85C2636.43 9.88 2635.45 10.44 2635.45 17.16V100.46C2635.45 107.18 2636.43 107.74 2643.85 107.74H2649.17V109H2609.97ZM2681.98 109H2654.68V107.74H2658.6C2666.02 107.74 2667 107.04 2667 100.32V17.02C2667 10.3 2666.02 9.59999 2658.6 9.59999H2654.68V8.33999H2678.2L2720.48 78.9C2722.16 81.56 2723.14 83.52 2723.14 84.08H2724.12C2723.98 82.54 2723.98 80.58 2723.98 78.2V18.42C2723.98 11.7 2721.46 9.59999 2714.04 9.59999H2707.18V8.33999H2738.82V9.59999H2736.44C2729.01 9.59999 2726.5 11.7 2726.5 18.42V111.66H2725.38C2725.38 109.84 2723 106.34 2721.04 102.98L2673.3 24.16C2671.76 21.5 2670.22 19.26 2670.22 18.7H2669.38C2669.66 20.24 2669.66 22.34 2669.66 24.72V100.32C2669.66 107.04 2670.5 107.74 2677.92 107.74H2681.98V109ZM2757.11 109V107.74H2768.87C2776.29 107.74 2776.99 107.04 2776.99 100.32V10.86H2767.75C2752.91 10.86 2747.73 13.52 2747.03 26.96L2746.47 32.7L2743.67 32.56L2746.05 0.0799921L2747.73 0.219999L2747.03 8.33999L2818.71 8.33999L2818.01 0.359997L2819.69 0.219999L2821.93 32.56L2819.13 32.7L2818.71 26.96C2817.59 13.52 2812.69 10.86 2797.99 10.86H2789.03V100.32C2789.03 107.04 2789.73 107.74 2797.15 107.74H2808.63V109H2757.11ZM2876.78 80.16H2875.38V72.46C2875.38 59.02 2867.4 57.48 2858.72 57.48H2852.56V99.06C2852.56 102.14 2851.02 104.66 2849.2 106.34V106.48H2879.86C2894.7 106.48 2901.7 101.02 2902.82 87.58L2903.8 76.38H2906.18L2903.52 114.32L2902.26 114.18L2902.68 107.74H2902.54C2901.42 108.72 2899.32 109 2896.8 109H2827.08V107.74H2832.4C2839.82 107.74 2840.66 107.04 2840.66 100.32V17.02C2840.66 10.3 2839.82 9.59999 2832.4 9.59999H2827.08V8.33999H2888.54C2890.92 8.33999 2893.16 8.62 2894.14 9.59999H2894.42L2893.86 3.15999L2895.26 3.02L2898.06 40.96H2895.26L2894.7 31.16C2893.72 16.04 2885.74 10.86 2870.9 10.86H2849.2V11C2851.02 12.68 2852.56 15.2 2852.56 18.28V54.96H2858.72C2867.4 54.96 2875.38 53.56 2875.38 40.12V35.22H2876.78V80.16ZM2912.12 109L2911.98 107.88H2917.3C2924.72 107.88 2925.56 107.18 2925.56 100.46V17.16C2925.56 10.44 2924.72 9.73999 2917.3 9.73999H2911.98V8.47999H2952.16C2976.8 8.47999 2993.04 20.94 2993.04 39.56C2993.04 56.64 2978.9 68.26 2960.42 69.8L2957.34 69.94V70.78C2964.62 71.48 2971.06 75.54 2974.42 80.44L2982.12 91.5C2986.18 97.24 2991.36 105.92 2997.38 105.92C2998.78 105.92 3000.32 105.36 3001.86 104.24L3005.22 101.58L3006.06 102.56L3002.7 105.22C2997.66 109 2993.6 110.54 2989.82 110.54C2981.98 110.54 2976.66 103.26 2971.9 96.4L2961.12 81.28C2955.94 74.14 2952.72 70.5 2945.86 70.5H2944.04V68.12H2951.04C2969.8 68.12 2979.88 58.04 2979.88 39.42C2979.88 20.8 2969.8 10.86 2951.04 10.86H2935.08V11C2936.9 12.68 2937.6 15.06 2937.6 18.28V100.32C2937.6 107.04 2938.58 107.74 2946 107.74H2954.96V109H2912.12ZM3034.3 109H3007V107.74H3010.92C3018.34 107.74 3019.32 107.04 3019.32 100.32V17.02C3019.32 10.3 3018.34 9.59999 3010.92 9.59999H3007V8.33999H3030.52L3072.8 78.9C3074.48 81.56 3075.46 83.52 3075.46 84.08H3076.44C3076.3 82.54 3076.3 80.58 3076.3 78.2V18.42C3076.3 11.7 3073.78 9.59999 3066.36 9.59999H3059.5V8.33999H3091.14V9.59999H3088.76C3081.34 9.59999 3078.82 11.7 3078.82 18.42V111.66H3077.7C3077.7 109.84 3075.32 106.34 3073.36 102.98L3025.62 24.16C3024.08 21.5 3022.54 19.26 3022.54 18.7H3021.7C3021.98 20.24 3021.98 22.34 3021.98 24.72V100.32C3021.98 107.04 3022.82 107.74 3030.24 107.74H3034.3V109ZM3088.58 109V107.74H3090.96C3094.88 107.74 3097.12 103.82 3099.5 99.06L3142.76 8.33999H3154.66V10.02C3154.66 12.82 3155.22 16.46 3156.06 18.14L3192.32 99.06C3195.4 105.78 3195.96 107.74 3201.42 107.74H3202.68V109H3173.28V107.74H3185.04V107.46C3182.94 106.76 3181.4 103.26 3180.28 100.88L3171.74 81.7H3110.7L3102.44 99.06C3102.02 100.18 3101.6 101.3 3101.6 102.28C3101.6 105.5 3104.4 107.74 3109.02 107.74H3116.58V109H3088.58ZM3111.96 79.18H3170.62L3144.44 20.8C3143.32 18.56 3143.18 16.74 3143.18 15.2H3141.78C3141.78 16.04 3141.36 17.86 3139.96 20.8L3111.96 79.18ZM3208.14 109V107.74H3219.9C3227.32 107.74 3228.02 107.04 3228.02 100.32V10.86H3218.78C3203.94 10.86 3198.76 13.52 3198.06 26.96L3197.5 32.7L3194.7 32.56L3197.08 0.0799921L3198.76 0.219999L3198.06 8.33999H3269.74L3269.04 0.359997L3270.72 0.219999L3272.96 32.56L3270.16 32.7L3269.74 26.96C3268.62 13.52 3263.72 10.86 3249.02 10.86H3240.06V100.32C3240.06 107.04 3240.76 107.74 3248.18 107.74H3259.66V109H3208.14ZM3278.11 109V107.74H3283.43C3290.85 107.74 3291.69 107.18 3291.69 100.46V16.88C3291.69 10.16 3290.85 9.59999 3283.43 9.59999H3278.11V8.33999H3317.31V9.88H3311.99C3304.57 9.88 3303.59 10.44 3303.59 17.16V100.46C3303.59 107.18 3304.57 107.74 3311.99 107.74H3317.31V109H3278.11ZM3381.9 110.12C3347.6 110.12 3324.78 89.54 3324.78 58.6C3324.78 27.8 3347.6 7.21999 3381.9 7.21999C3415.92 7.21999 3438.74 27.8 3438.74 58.6C3438.74 89.54 3415.92 110.12 3381.9 110.12ZM3382.46 107.6C3410.32 107.6 3425.3 91.36 3425.3 61.26C3425.3 27.8 3409.9 9.73999 3381.34 9.73999C3353.34 9.73999 3338.22 25.98 3338.22 56.08C3338.22 89.54 3353.62 107.6 3382.46 107.6ZM3473.58 109H3446.28V107.74H3450.2C3457.62 107.74 3458.6 107.04 3458.6 100.32V17.02C3458.6 10.3 3457.62 9.59999 3450.2 9.59999H3446.28V8.33999H3469.8L3512.08 78.9C3513.76 81.56 3514.74 83.52 3514.74 84.08H3515.72C3515.58 82.54 3515.58 80.58 3515.58 78.2V18.42C3515.58 11.7 3513.06 9.59999 3505.64 9.59999H3498.78V8.33999H3530.42V9.59999H3528.04C3520.62 9.59999 3518.1 11.7 3518.1 18.42V111.66H3516.98C3516.98 109.84 3514.6 106.34 3512.64 102.98L3464.9 24.16C3463.36 21.5 3461.82 19.26 3461.82 18.7H3460.98C3461.26 20.24 3461.26 22.34 3461.26 24.72V100.32C3461.26 107.04 3462.1 107.74 3469.52 107.74H3473.58V109ZM3527.86 109V107.74H3530.24C3534.16 107.74 3536.4 103.82 3538.78 99.06L3582.04 8.33999H3593.94V10.02C3593.94 12.82 3594.5 16.46 3595.34 18.14L3631.6 99.06C3634.68 105.78 3635.24 107.74 3640.7 107.74H3641.96V109H3612.56V107.74H3624.32V107.46C3622.22 106.76 3620.68 103.26 3619.56 100.88L3611.02 81.7L3549.98 81.7L3541.72 99.06C3541.3 100.18 3540.88 101.3 3540.88 102.28C3540.88 105.5 3543.68 107.74 3548.3 107.74H3555.86V109H3527.86ZM3551.24 79.18L3609.9 79.18L3583.72 20.8C3582.6 18.56 3582.46 16.74 3582.46 15.2H3581.06C3581.06 16.04 3580.64 17.86 3579.24 20.8L3551.24 79.18ZM3646.16 109V107.74H3651.48C3658.9 107.74 3659.74 106.06 3659.74 99.34V16.88C3659.74 10.16 3658.9 9.59999 3651.48 9.59999H3646.16V8.33999H3685.36V9.59999H3680.04C3672.62 9.59999 3671.64 10.16 3671.64 16.88V99.06C3671.64 102.14 3670.1 104.66 3668.28 106.34V106.48H3689.14C3703.84 106.48 3713.78 103.82 3715.04 90.38L3716.16 76.38H3719.24L3716.16 116.14L3714.62 116L3715.32 107.74H3715.18C3714.06 108.72 3713.5 109 3710.98 109H3646.16Z" fill="black"/>
</svg>
